<?xml version="1.0" encoding="UTF-8"?>
<svg xmlns="http://www.w3.org/2000/svg" xmlns:xlink="http://www.w3.org/1999/xlink" width="400pt" height="400pt" viewBox="0 0 128 128" version="1.1">
<g id="surface1">
<path style=" stroke:none;fill-rule:nonzero;fill:rgb(90.588235%,90.588235%,90.588235%);fill-opacity:1;" d="M 124.757812 126.125 L 102.882812 126.125 C 102.195312 126.125 101.632812 125.566406 101.632812 124.875 L 101.632812 117.570312 C 101.632812 113.878906 104.625 110.886719 108.320312 110.886719 L 119.324219 110.886719 C 123.015625 110.886719 126.007812 113.878906 126.007812 117.570312 L 126.007812 124.875 C 126.007812 125.566406 125.449219 126.125 124.757812 126.125 Z M 124.757812 126.125 "/>
<path style=" stroke:none;fill-rule:nonzero;fill:rgb(80.784314%,80.784314%,80.784314%);fill-opacity:1;" d="M 126.007812 117.570312 L 126.007812 124.875 C 126.007812 125.566406 125.449219 126.125 124.757812 126.125 L 120.609375 126.125 L 120.609375 117.570312 C 120.609375 113.878906 117.617188 110.886719 113.925781 110.886719 L 119.328125 110.886719 C 123.015625 110.886719 126.007812 113.878906 126.007812 117.570312 Z M 126.007812 117.570312 "/>
<path style=" stroke:none;fill-rule:nonzero;fill:rgb(60.392157%,90.588235%,99.215686%);fill-opacity:1;" d="M 14.640625 117.035156 L 6.234375 117.035156 L 6.234375 114.085938 C 6.234375 112.808594 7.265625 111.777344 8.539062 111.777344 L 12.335938 111.777344 C 13.609375 111.777344 14.640625 112.808594 14.640625 114.085938 Z M 14.640625 117.035156 "/>
<path style=" stroke:none;fill-rule:nonzero;fill:rgb(60.392157%,90.588235%,99.215686%);fill-opacity:1;" d="M 40.273438 117.035156 L 14.742188 117.035156 L 14.742188 114.085938 C 14.742188 112.808594 15.773438 111.777344 17.046875 111.777344 L 37.96875 111.777344 C 39.242188 111.777344 40.273438 112.808594 40.273438 114.085938 Z M 40.273438 117.035156 "/>
<path style=" stroke:none;fill-rule:nonzero;fill:rgb(60.392157%,90.588235%,99.215686%);fill-opacity:1;" d="M 48.683594 117.035156 L 40.273438 117.035156 L 40.273438 114.085938 C 40.273438 112.808594 41.304688 111.777344 42.578125 111.777344 L 46.378906 111.777344 C 47.652344 111.777344 48.683594 112.808594 48.683594 114.085938 Z M 48.683594 117.035156 "/>
<path style=" stroke:none;fill-rule:nonzero;fill:rgb(60.392157%,90.588235%,99.215686%);fill-opacity:1;" d="M 57.195312 117.035156 L 48.785156 117.035156 L 48.785156 114.085938 C 48.785156 112.808594 49.816406 111.777344 51.089844 111.777344 L 54.890625 111.777344 C 56.164062 111.777344 57.195312 112.808594 57.195312 114.085938 Z M 57.195312 117.035156 "/>
<path style=" stroke:none;fill-rule:nonzero;fill:rgb(60.392157%,90.588235%,99.215686%);fill-opacity:1;" d="M 74.214844 117.035156 L 65.804688 117.035156 L 65.804688 114.085938 C 65.804688 112.808594 66.839844 111.777344 68.113281 111.777344 L 71.910156 111.777344 C 73.183594 111.777344 74.214844 112.808594 74.214844 114.085938 Z M 74.214844 117.035156 "/>
<path style=" stroke:none;fill-rule:nonzero;fill:rgb(60.392157%,90.588235%,99.215686%);fill-opacity:1;" d="M 82.726562 117.035156 L 74.316406 117.035156 L 74.316406 114.085938 C 74.316406 112.808594 75.351562 111.777344 76.625 111.777344 L 80.421875 111.777344 C 81.695312 111.777344 82.726562 112.808594 82.726562 114.085938 Z M 82.726562 117.035156 "/>
<path style=" stroke:none;fill-rule:nonzero;fill:rgb(60.392157%,90.588235%,99.215686%);fill-opacity:1;" d="M 91.238281 117.035156 L 82.828125 117.035156 L 82.828125 114.085938 C 82.828125 112.808594 83.859375 111.777344 85.132812 111.777344 L 88.929688 111.777344 C 90.203125 111.777344 91.238281 112.808594 91.238281 114.085938 Z M 91.238281 117.035156 "/>
<path style=" stroke:none;fill-rule:nonzero;fill:rgb(74.901961%,74.901961%,74.901961%);fill-opacity:1;" d="M 94.34375 126.125 L 3.125 126.125 C 2.433594 126.125 1.875 125.566406 1.875 124.875 L 1.875 118.285156 C 1.875 117.59375 2.433594 117.035156 3.125 117.035156 L 94.34375 117.035156 C 95.035156 117.035156 95.59375 117.59375 95.59375 118.285156 L 95.59375 124.875 C 95.59375 125.566406 95.035156 126.125 94.34375 126.125 Z M 94.34375 126.125 "/>
<path style=" stroke:none;fill-rule:nonzero;fill:rgb(67.45098%,67.45098%,67.45098%);fill-opacity:1;" d="M 94.34375 126.125 L 90.082031 126.125 L 90.082031 117.035156 L 94.34375 117.035156 C 95.035156 117.035156 95.59375 117.59375 95.59375 118.285156 L 95.59375 124.875 C 95.59375 125.566406 95.035156 126.125 94.34375 126.125 Z M 94.34375 126.125 "/>
<path style=" stroke:none;fill-rule:nonzero;fill:rgb(60.392157%,90.588235%,99.215686%);fill-opacity:1;" d="M 13.691406 19.582031 L 114.15625 19.582031 L 114.15625 73.617188 L 13.691406 73.617188 Z M 13.691406 19.582031 "/>
<path style=" stroke:none;fill-rule:nonzero;fill:rgb(39.215686%,86.27451%,98.823529%);fill-opacity:1;" d="M 114.15625 7.039062 L 114.15625 80.914062 C 114.15625 83.765625 111.847656 86.074219 108.992188 86.074219 L 102.6875 86.074219 C 105.539062 86.074219 107.851562 83.765625 107.851562 80.914062 L 107.851562 7.039062 C 107.851562 4.1875 105.539062 1.875 102.6875 1.875 L 108.992188 1.875 C 111.847656 1.875 114.15625 4.1875 114.15625 7.039062 Z M 114.15625 7.039062 "/>
<path style=" stroke:none;fill-rule:nonzero;fill:rgb(74.901961%,74.901961%,74.901961%);fill-opacity:1;" d="M 114.15625 73.632812 L 13.578125 73.632812 L 13.578125 80.914062 C 13.578125 83.765625 15.890625 86.074219 18.742188 86.074219 L 108.992188 86.074219 C 111.84375 86.074219 114.15625 83.765625 114.15625 80.914062 Z M 114.15625 73.632812 "/>
<path style=" stroke:none;fill-rule:nonzero;fill:rgb(67.45098%,67.45098%,67.45098%);fill-opacity:1;" d="M 114.15625 73.632812 L 114.15625 80.910156 C 114.15625 83.765625 111.847656 86.074219 108.992188 86.074219 L 102.6875 86.074219 C 105.539062 86.074219 107.851562 83.765625 107.851562 80.910156 L 107.851562 73.632812 Z M 114.15625 73.632812 "/>
<path style=" stroke:none;fill-rule:nonzero;fill:rgb(74.901961%,74.901961%,74.901961%);fill-opacity:1;" d="M 114.273438 19.488281 L 13.691406 19.488281 L 13.691406 7.039062 C 13.691406 4.1875 16 1.875 18.851562 1.875 L 109.109375 1.875 C 111.960938 1.875 114.273438 4.1875 114.273438 7.039062 Z M 114.273438 19.488281 "/>
<path style=" stroke:none;fill-rule:nonzero;fill:rgb(67.45098%,67.45098%,67.45098%);fill-opacity:1;" d="M 114.273438 7.039062 L 114.273438 19.492188 L 107.851562 19.492188 L 107.851562 7.039062 C 107.851562 4.1875 105.539062 1.875 102.6875 1.875 L 109.109375 1.875 C 111.960938 1.875 114.273438 4.1875 114.273438 7.039062 Z M 114.273438 7.039062 "/>
<path style=" stroke:none;fill-rule:nonzero;fill:rgb(51.372549%,51.372549%,51.372549%);fill-opacity:1;" d="M 49.800781 86.074219 L 77.9375 86.074219 L 77.9375 94.554688 L 49.800781 94.554688 Z M 49.800781 86.074219 "/>
<path style=" stroke:none;fill-rule:nonzero;fill:rgb(35.294118%,35.294118%,35.294118%);fill-opacity:1;" d="M 73.207031 86.203125 L 77.9375 86.203125 L 77.9375 94.429688 L 73.207031 94.429688 Z M 73.207031 86.203125 "/>
<path style=" stroke:none;fill-rule:nonzero;fill:rgb(74.901961%,74.901961%,74.901961%);fill-opacity:1;" d="M 87.054688 102.875 L 40.683594 102.875 C 40.125 102.875 39.671875 102.421875 39.671875 101.863281 L 39.671875 98.585938 C 39.671875 96.359375 41.472656 94.554688 43.695312 94.554688 L 84.039062 94.554688 C 86.261719 94.554688 88.0625 96.359375 88.0625 98.585938 L 88.0625 101.863281 C 88.066406 102.421875 87.609375 102.875 87.054688 102.875 Z M 87.054688 102.875 "/>
<path style=" stroke:none;fill-rule:nonzero;fill:rgb(67.45098%,67.45098%,67.45098%);fill-opacity:1;" d="M 88.0625 98.582031 L 88.0625 101.863281 C 88.0625 102.421875 87.609375 102.875 87.054688 102.875 L 83.480469 102.875 L 83.480469 98.582031 C 83.480469 96.359375 81.675781 94.554688 79.453125 94.554688 L 84.039062 94.554688 C 86.261719 94.554688 88.0625 96.359375 88.0625 98.582031 Z M 88.0625 98.582031 "/>
<path style=" stroke:none;fill-rule:nonzero;fill:rgb(100%,34.117647%,34.117647%);fill-opacity:1;" d="M 26.195312 10.640625 C 26.195312 12.261719 24.878906 13.578125 23.257812 13.578125 C 21.632812 13.578125 20.320312 12.261719 20.320312 10.640625 C 20.320312 9.015625 21.632812 7.703125 23.257812 7.703125 C 24.878906 7.703125 26.195312 9.015625 26.195312 10.640625 Z M 26.195312 10.640625 "/>
<path style=" stroke:none;fill-rule:nonzero;fill:rgb(100%,80.392157%,41.960784%);fill-opacity:1;" d="M 37.535156 10.640625 C 37.535156 12.261719 36.21875 13.578125 34.597656 13.578125 C 32.976562 13.578125 31.664062 12.261719 31.664062 10.640625 C 31.664062 9.015625 32.976562 7.703125 34.597656 7.703125 C 36.21875 7.703125 37.535156 9.015625 37.535156 10.640625 Z M 37.535156 10.640625 "/>
<path style=" stroke:none;fill-rule:nonzero;fill:rgb(0%,82.745098%,70.588235%);fill-opacity:1;" d="M 48.878906 10.640625 C 48.878906 12.261719 47.5625 13.578125 45.941406 13.578125 C 44.320312 13.578125 43.003906 12.261719 43.003906 10.640625 C 43.003906 9.015625 44.320312 7.703125 45.941406 7.703125 C 47.5625 7.703125 48.878906 9.015625 48.878906 10.640625 Z M 48.878906 10.640625 "/>
<path style=" stroke:none;fill-rule:nonzero;fill:rgb(100%,26.27451%,26.27451%);fill-opacity:1;" d="M 26.191406 10.640625 C 26.191406 12.261719 24.878906 13.574219 23.257812 13.574219 C 22.472656 13.574219 21.757812 13.265625 21.230469 12.765625 C 22.820312 12.726562 24.097656 11.429688 24.097656 9.828125 C 24.097656 8.992188 23.75 8.238281 23.1875 7.703125 C 23.210938 7.703125 23.234375 7.703125 23.257812 7.703125 C 24.878906 7.703125 26.191406 9.015625 26.191406 10.640625 Z M 26.191406 10.640625 "/>
<path style=" stroke:none;fill-rule:nonzero;fill:rgb(100%,75.686275%,26.27451%);fill-opacity:1;" d="M 37.535156 10.640625 C 37.535156 12.261719 36.222656 13.574219 34.597656 13.574219 C 33.8125 13.574219 33.101562 13.265625 32.570312 12.765625 C 34.164062 12.726562 35.441406 11.429688 35.441406 9.828125 C 35.441406 8.992188 35.09375 8.238281 34.53125 7.703125 C 34.554688 7.703125 34.578125 7.703125 34.597656 7.703125 C 36.222656 7.703125 37.535156 9.015625 37.535156 10.640625 Z M 37.535156 10.640625 "/>
<path style=" stroke:none;fill-rule:nonzero;fill:rgb(0%,71.764706%,62.745098%);fill-opacity:1;" d="M 48.878906 10.640625 C 48.878906 12.261719 47.5625 13.574219 45.941406 13.574219 C 45.15625 13.574219 44.445312 13.265625 43.914062 12.765625 C 45.507812 12.726562 46.785156 11.429688 46.785156 9.828125 C 46.785156 8.992188 46.433594 8.238281 45.875 7.703125 C 45.894531 7.703125 45.921875 7.703125 45.941406 7.703125 C 47.5625 7.703125 48.878906 9.015625 48.878906 10.640625 Z M 48.878906 10.640625 "/>
<path style=" stroke:none;fill-rule:nonzero;fill:rgb(100%,70.980392%,3.529412%);fill-opacity:1;" d="M 50.910156 65.5625 L 26.019531 65.5625 C 25.328125 65.5625 24.769531 65.003906 24.769531 64.3125 L 24.769531 45.371094 C 24.769531 44.679688 25.328125 44.121094 26.019531 44.121094 L 50.910156 44.121094 C 51.601562 44.121094 52.160156 44.679688 52.160156 45.371094 L 52.160156 64.3125 C 52.160156 65.003906 51.601562 65.5625 50.910156 65.5625 Z M 50.910156 65.5625 "/>
<path style=" stroke:none;fill-rule:nonzero;fill:rgb(100%,66.666667%,0%);fill-opacity:1;" d="M 52.15625 45.371094 L 52.15625 64.3125 C 52.15625 65.003906 51.597656 65.5625 50.90625 65.5625 L 47.042969 65.5625 C 47.734375 65.5625 48.292969 65.003906 48.292969 64.3125 L 48.292969 45.371094 C 48.292969 44.679688 47.734375 44.121094 47.042969 44.121094 L 50.90625 44.121094 C 51.597656 44.121094 52.15625 44.679688 52.15625 45.371094 Z M 52.15625 45.371094 "/>
<path style=" stroke:none;fill-rule:nonzero;fill:rgb(0%,0%,0%);fill-opacity:1;" d="M 25.292969 30.921875 L 37.617188 30.921875 C 38.65625 30.921875 39.492188 30.085938 39.492188 29.046875 C 39.492188 28.015625 38.65625 27.171875 37.617188 27.171875 L 25.292969 27.171875 C 24.257812 27.171875 23.417969 28.015625 23.417969 29.046875 C 23.417969 30.085938 24.257812 30.921875 25.292969 30.921875 Z M 25.292969 30.921875 "/>
<path style=" stroke:none;fill-rule:nonzero;fill:rgb(0%,0%,0%);fill-opacity:1;" d="M 44.339844 30.921875 L 66.011719 30.921875 C 67.046875 30.921875 67.886719 30.085938 67.886719 29.046875 C 67.886719 28.015625 67.046875 27.171875 66.011719 27.171875 L 44.339844 27.171875 C 43.304688 27.171875 42.464844 28.015625 42.464844 29.046875 C 42.464844 30.085938 43.304688 30.921875 44.339844 30.921875 Z M 44.339844 30.921875 "/>
<path style=" stroke:none;fill-rule:nonzero;fill:rgb(0%,0%,0%);fill-opacity:1;" d="M 25.292969 38.078125 L 30.542969 38.078125 C 31.578125 38.078125 32.417969 37.238281 32.417969 36.203125 C 32.417969 35.167969 31.578125 34.328125 30.542969 34.328125 L 25.292969 34.328125 C 24.257812 34.328125 23.417969 35.167969 23.417969 36.203125 C 23.417969 37.238281 24.257812 38.078125 25.292969 38.078125 Z M 25.292969 38.078125 "/>
<path style=" stroke:none;fill-rule:nonzero;fill:rgb(0%,0%,0%);fill-opacity:1;" d="M 64.390625 36.203125 C 64.390625 35.167969 63.550781 34.328125 62.515625 34.328125 L 59.316406 34.328125 C 58.28125 34.328125 57.441406 35.167969 57.441406 36.203125 C 57.441406 37.238281 58.28125 38.078125 59.316406 38.078125 L 62.515625 38.078125 C 63.550781 38.078125 64.390625 37.238281 64.390625 36.203125 Z M 64.390625 36.203125 "/>
<path style=" stroke:none;fill-rule:nonzero;fill:rgb(0%,0%,0%);fill-opacity:1;" d="M 36.964844 34.328125 C 35.929688 34.328125 35.089844 35.167969 35.089844 36.203125 C 35.089844 37.238281 35.929688 38.078125 36.964844 38.078125 L 52.671875 38.078125 C 53.707031 38.078125 54.546875 37.238281 54.546875 36.203125 C 54.546875 35.167969 53.707031 34.328125 52.671875 34.328125 Z M 36.964844 34.328125 "/>
<path style=" stroke:none;fill-rule:nonzero;fill:rgb(0%,0%,0%);fill-opacity:1;" d="M 66.445312 36.203125 C 66.445312 37.238281 67.28125 38.078125 68.320312 38.078125 L 74.308594 38.078125 C 75.34375 38.078125 76.183594 37.238281 76.183594 36.203125 C 76.183594 35.167969 75.34375 34.328125 74.308594 34.328125 L 68.320312 34.328125 C 67.28125 34.328125 66.445312 35.167969 66.445312 36.203125 Z M 66.445312 36.203125 "/>
<path style=" stroke:none;fill-rule:nonzero;fill:rgb(0%,0%,0%);fill-opacity:1;" d="M 67.359375 44.183594 L 62.003906 44.183594 C 60.96875 44.183594 60.128906 45.023438 60.128906 46.058594 C 60.128906 47.09375 60.96875 47.933594 62.003906 47.933594 L 67.359375 47.933594 C 68.398438 47.933594 69.234375 47.09375 69.234375 46.058594 C 69.234375 45.023438 68.398438 44.183594 67.359375 44.183594 Z M 67.359375 44.183594 "/>
<path style=" stroke:none;fill-rule:nonzero;fill:rgb(0%,0%,0%);fill-opacity:1;" d="M 73.988281 46.058594 C 73.988281 47.09375 74.828125 47.933594 75.863281 47.933594 L 84.507812 47.933594 C 85.542969 47.933594 86.382812 47.09375 86.382812 46.058594 C 86.382812 45.023438 85.542969 44.183594 84.507812 44.183594 L 75.863281 44.183594 C 74.828125 44.183594 73.988281 45.023438 73.988281 46.058594 Z M 73.988281 46.058594 "/>
<path style=" stroke:none;fill-rule:nonzero;fill:rgb(0%,0%,0%);fill-opacity:1;" d="M 91.9375 47.933594 L 103.082031 47.933594 C 104.117188 47.933594 104.957031 47.09375 104.957031 46.058594 C 104.957031 45.023438 104.117188 44.183594 103.082031 44.183594 L 91.9375 44.183594 C 90.902344 44.183594 90.0625 45.023438 90.0625 46.058594 C 90.0625 47.09375 90.902344 47.933594 91.9375 47.933594 Z M 91.9375 47.933594 "/>
<path style=" stroke:none;fill-rule:nonzero;fill:rgb(0%,0%,0%);fill-opacity:1;" d="M 60.128906 54.84375 C 60.128906 55.878906 60.96875 56.71875 62.003906 56.71875 L 75.863281 56.71875 C 76.898438 56.71875 77.738281 55.878906 77.738281 54.84375 C 77.738281 53.804688 76.898438 52.96875 75.863281 52.96875 L 62.003906 52.96875 C 60.96875 52.96875 60.128906 53.804688 60.128906 54.84375 Z M 60.128906 54.84375 "/>
<path style=" stroke:none;fill-rule:nonzero;fill:rgb(0%,0%,0%);fill-opacity:1;" d="M 82.632812 54.84375 C 82.632812 55.878906 83.472656 56.71875 84.507812 56.71875 L 87.902344 56.71875 C 88.9375 56.71875 89.777344 55.878906 89.777344 54.84375 C 89.777344 53.804688 88.9375 52.96875 87.902344 52.96875 L 84.507812 52.96875 C 83.472656 52.96875 82.632812 53.804688 82.632812 54.84375 Z M 82.632812 54.84375 "/>
<path style=" stroke:none;fill-rule:nonzero;fill:rgb(0%,0%,0%);fill-opacity:1;" d="M 103.082031 52.96875 L 96.296875 52.96875 C 95.257812 52.96875 94.421875 53.804688 94.421875 54.84375 C 94.421875 55.878906 95.257812 56.71875 96.296875 56.71875 L 103.082031 56.71875 C 104.117188 56.71875 104.957031 55.878906 104.957031 54.84375 C 104.957031 53.804688 104.117188 52.96875 103.082031 52.96875 Z M 103.082031 52.96875 "/>
<path style=" stroke:none;fill-rule:nonzero;fill:rgb(0%,0%,0%);fill-opacity:1;" d="M 67.359375 61.75 L 62.003906 61.75 C 60.96875 61.75 60.128906 62.589844 60.128906 63.625 C 60.128906 64.660156 60.96875 65.5 62.003906 65.5 L 67.359375 65.5 C 68.398438 65.5 69.234375 64.660156 69.234375 63.625 C 69.234375 62.589844 68.398438 61.75 67.359375 61.75 Z M 67.359375 61.75 "/>
<path style=" stroke:none;fill-rule:nonzero;fill:rgb(0%,0%,0%);fill-opacity:1;" d="M 91.9375 61.75 L 75.863281 61.75 C 74.828125 61.75 73.988281 62.589844 73.988281 63.625 C 73.988281 64.660156 74.828125 65.5 75.863281 65.5 L 91.9375 65.5 C 92.972656 65.5 93.8125 64.660156 93.8125 63.625 C 93.8125 62.589844 92.972656 61.75 91.9375 61.75 Z M 91.9375 61.75 "/>
<path style=" stroke:none;fill-rule:nonzero;fill:rgb(0%,0%,0%);fill-opacity:1;" d="M 103.082031 61.75 L 99.6875 61.75 C 98.652344 61.75 97.8125 62.589844 97.8125 63.625 C 97.8125 64.660156 98.652344 65.5 99.6875 65.5 L 103.082031 65.5 C 104.117188 65.5 104.957031 64.660156 104.957031 63.625 C 104.957031 62.589844 104.117188 61.75 103.082031 61.75 Z M 103.082031 61.75 "/>
<path style=" stroke:none;fill-rule:nonzero;fill:rgb(0%,0%,0%);fill-opacity:1;" d="M 94.34375 115.160156 L 93.113281 115.160156 L 93.113281 114.085938 C 93.113281 111.777344 91.234375 109.902344 88.929688 109.902344 L 85.132812 109.902344 C 84.257812 109.902344 83.449219 110.171875 82.777344 110.632812 C 82.105469 110.171875 81.292969 109.902344 80.421875 109.902344 L 76.625 109.902344 C 75.75 109.902344 74.9375 110.171875 74.265625 110.632812 C 73.59375 110.171875 72.78125 109.902344 71.910156 109.902344 L 68.113281 109.902344 C 65.804688 109.902344 63.929688 111.777344 63.929688 114.085938 L 63.929688 115.160156 L 59.070312 115.160156 L 59.070312 114.085938 C 59.070312 111.777344 57.195312 109.902344 54.890625 109.902344 L 51.089844 109.902344 C 50.21875 109.902344 49.40625 110.171875 48.734375 110.632812 C 48.0625 110.171875 47.25 109.902344 46.378906 109.902344 L 42.578125 109.902344 C 41.726562 109.902344 40.9375 110.160156 40.273438 110.601562 C 39.613281 110.160156 38.820312 109.902344 37.96875 109.902344 L 17.046875 109.902344 C 16.175781 109.902344 15.363281 110.171875 14.691406 110.632812 C 14.019531 110.171875 13.210938 109.902344 12.335938 109.902344 L 8.539062 109.902344 C 6.234375 109.902344 4.359375 111.777344 4.359375 114.085938 L 4.359375 115.160156 L 3.125 115.160156 C 1.402344 115.160156 0 116.5625 0 118.285156 L 0 124.875 C 0 126.597656 1.402344 128 3.125 128 L 18.003906 128 C 19.039062 128 19.878906 127.160156 19.878906 126.125 C 19.878906 125.089844 19.039062 124.25 18.003906 124.25 L 3.75 124.25 L 3.75 118.910156 L 93.71875 118.910156 L 93.71875 124.25 L 26.503906 124.25 C 25.46875 124.25 24.628906 125.089844 24.628906 126.125 C 24.628906 127.160156 25.46875 128 26.503906 128 L 94.34375 128 C 96.070312 128 97.46875 126.597656 97.46875 124.875 L 97.46875 118.285156 C 97.46875 116.5625 96.066406 115.160156 94.34375 115.160156 Z M 12.765625 115.160156 L 8.109375 115.160156 L 8.109375 114.085938 C 8.109375 113.84375 8.300781 113.652344 8.539062 113.652344 L 12.335938 113.652344 C 12.570312 113.652344 12.765625 113.84375 12.765625 114.085938 Z M 38.398438 115.160156 L 16.617188 115.160156 L 16.617188 114.085938 C 16.617188 113.84375 16.8125 113.652344 17.046875 113.652344 L 37.96875 113.652344 C 38.207031 113.652344 38.398438 113.84375 38.398438 114.085938 Z M 46.808594 115.160156 L 42.148438 115.160156 L 42.148438 114.085938 C 42.148438 113.84375 42.34375 113.652344 42.578125 113.652344 L 46.378906 113.652344 C 46.617188 113.652344 46.808594 113.84375 46.808594 114.085938 Z M 55.320312 115.160156 L 50.660156 115.160156 L 50.660156 114.085938 C 50.660156 113.84375 50.851562 113.652344 51.089844 113.652344 L 54.890625 113.652344 C 55.125 113.652344 55.320312 113.84375 55.320312 114.085938 Z M 72.339844 115.160156 L 67.679688 115.160156 L 67.679688 114.085938 C 67.679688 113.84375 67.875 113.652344 68.113281 113.652344 L 71.910156 113.652344 C 72.148438 113.652344 72.339844 113.84375 72.339844 114.085938 Z M 80.851562 115.160156 L 76.191406 115.160156 L 76.191406 114.085938 C 76.191406 113.84375 76.386719 113.652344 76.625 113.652344 L 80.421875 113.652344 C 80.65625 113.652344 80.851562 113.84375 80.851562 114.085938 Z M 89.363281 115.160156 L 84.703125 115.160156 L 84.703125 114.085938 C 84.703125 113.84375 84.898438 113.652344 85.132812 113.652344 L 88.929688 113.652344 C 89.167969 113.652344 89.363281 113.84375 89.363281 114.085938 Z M 89.363281 115.160156 "/>
<path style=" stroke:none;fill-rule:nonzero;fill:rgb(0%,0%,0%);fill-opacity:1;" d="M 119.324219 109.011719 L 108.320312 109.011719 C 103.601562 109.011719 99.757812 112.851562 99.757812 117.570312 L 99.757812 124.875 C 99.757812 126.597656 101.164062 128 102.882812 128 L 124.757812 128 C 126.480469 128 127.882812 126.597656 127.882812 124.875 L 127.882812 117.570312 C 127.882812 112.851562 124.042969 109.011719 119.324219 109.011719 Z M 124.132812 124.25 L 103.507812 124.25 L 103.507812 117.570312 C 103.507812 114.921875 105.667969 112.761719 108.320312 112.761719 L 119.324219 112.761719 C 121.976562 112.761719 124.132812 114.921875 124.132812 117.570312 Z M 124.132812 124.25 "/>
<path style=" stroke:none;fill-rule:nonzero;fill:rgb(0%,0%,0%);fill-opacity:1;" d="M 18.742188 87.949219 L 47.925781 87.949219 L 47.925781 92.679688 L 43.695312 92.679688 C 40.445312 92.679688 37.796875 95.328125 37.796875 98.582031 L 37.796875 101.863281 C 37.796875 103.453125 39.089844 104.75 40.683594 104.75 L 68.128906 104.75 C 69.164062 104.75 70.003906 103.910156 70.003906 102.875 C 70.003906 101.839844 69.164062 101 68.128906 101 L 41.546875 101 L 41.546875 98.582031 C 41.546875 97.398438 42.511719 96.429688 43.695312 96.429688 L 84.039062 96.429688 C 85.226562 96.429688 86.1875 97.398438 86.1875 98.582031 L 86.1875 101 L 76.878906 101 C 75.84375 101 75.003906 101.839844 75.003906 102.875 C 75.003906 103.910156 75.84375 104.75 76.878906 104.75 L 87.054688 104.75 C 88.644531 104.75 89.9375 103.453125 89.9375 101.863281 L 89.9375 98.582031 C 89.9375 95.328125 87.292969 92.679688 84.039062 92.679688 L 79.8125 92.679688 L 79.8125 87.949219 L 108.992188 87.949219 C 112.875 87.949219 116.03125 84.792969 116.03125 80.914062 L 116.148438 7.039062 C 116.148438 3.15625 112.992188 0 109.109375 0 L 18.742188 0 C 14.859375 0 11.703125 3.15625 11.703125 7.039062 L 11.703125 80.910156 C 11.703125 84.792969 14.859375 87.949219 18.742188 87.949219 Z M 76.0625 92.679688 L 51.675781 92.679688 L 51.675781 87.949219 L 76.0625 87.949219 Z M 15.566406 7.039062 C 15.566406 5.226562 17.039062 3.75 18.851562 3.75 L 108.992188 3.75 C 110.808594 3.75 112.28125 5.226562 112.28125 7.039062 L 112.28125 17.613281 L 15.566406 17.613281 Z M 15.453125 21.363281 L 112.28125 21.363281 L 112.28125 71.757812 L 15.453125 71.757812 Z M 15.453125 75.507812 L 112.28125 75.507812 L 112.28125 80.910156 C 112.28125 82.726562 110.808594 84.199219 108.992188 84.199219 L 18.742188 84.199219 C 16.929688 84.199219 15.453125 82.726562 15.453125 80.910156 Z M 15.453125 75.507812 "/>
<path style=" stroke:none;fill-rule:nonzero;fill:rgb(0%,0%,0%);fill-opacity:1;" d="M 23.257812 5.828125 C 20.601562 5.828125 18.445312 7.984375 18.445312 10.640625 C 18.445312 13.292969 20.601562 15.453125 23.257812 15.453125 C 25.910156 15.453125 28.070312 13.292969 28.070312 10.640625 C 28.070312 7.984375 25.910156 5.828125 23.257812 5.828125 Z M 23.257812 11.703125 C 22.671875 11.703125 22.195312 11.226562 22.195312 10.640625 C 22.195312 10.054688 22.671875 9.578125 23.257812 9.578125 C 23.84375 9.578125 24.320312 10.054688 24.320312 10.640625 C 24.320312 11.226562 23.84375 11.703125 23.257812 11.703125 Z M 23.257812 11.703125 "/>
<path style=" stroke:none;fill-rule:nonzero;fill:rgb(0%,0%,0%);fill-opacity:1;" d="M 34.597656 5.828125 C 31.945312 5.828125 29.789062 7.984375 29.789062 10.640625 C 29.789062 13.292969 31.945312 15.453125 34.597656 15.453125 C 37.25 15.453125 39.410156 13.292969 39.410156 10.640625 C 39.410156 7.984375 37.25 5.828125 34.597656 5.828125 Z M 34.597656 11.703125 C 34.015625 11.703125 33.539062 11.226562 33.539062 10.640625 C 33.539062 10.054688 34.015625 9.578125 34.597656 9.578125 C 35.183594 9.578125 35.660156 10.054688 35.660156 10.640625 C 35.660156 11.226562 35.183594 11.703125 34.597656 11.703125 Z M 34.597656 11.703125 "/>
<path style=" stroke:none;fill-rule:nonzero;fill:rgb(0%,0%,0%);fill-opacity:1;" d="M 45.941406 5.828125 C 43.289062 5.828125 41.128906 7.984375 41.128906 10.640625 C 41.128906 13.292969 43.289062 15.453125 45.941406 15.453125 C 48.59375 15.453125 50.753906 13.292969 50.753906 10.640625 C 50.753906 7.984375 48.59375 5.828125 45.941406 5.828125 Z M 45.941406 11.703125 C 45.355469 11.703125 44.878906 11.226562 44.878906 10.640625 C 44.878906 10.054688 45.355469 9.578125 45.941406 9.578125 C 46.527344 9.578125 47.003906 10.054688 47.003906 10.640625 C 47.003906 11.226562 46.527344 11.703125 45.941406 11.703125 Z M 45.941406 11.703125 "/>
<path style=" stroke:none;fill-rule:nonzero;fill:rgb(0%,0%,0%);fill-opacity:1;" d="M 26.019531 67.4375 L 50.910156 67.4375 C 52.632812 67.4375 54.035156 66.035156 54.035156 64.3125 L 54.035156 45.371094 C 54.035156 43.648438 52.632812 42.246094 50.910156 42.246094 L 26.019531 42.246094 C 24.296875 42.246094 22.894531 43.648438 22.894531 45.371094 L 22.894531 64.3125 C 22.894531 66.035156 24.296875 67.4375 26.019531 67.4375 Z M 26.644531 45.996094 L 50.285156 45.996094 L 50.285156 63.6875 L 26.644531 63.6875 Z M 26.644531 45.996094 "/>
</g>
</svg>
