<svg id="Capa_1" enable-background="new 0 0 512 512" height="512" viewBox="0 0 512 512" width="512" xmlns="http://www.w3.org/2000/svg"><g><g><path d="m281.58 301.45c-7.639 0-15.103-.751-22.326-2.169v152.353h42.888v-152.015c-6.673 1.202-13.544 1.831-20.562 1.831z" fill="#01d0fb"/><path d="m259.254 299.281v152.353h16.858v-150.316c-5.74-.269-11.368-.959-16.858-2.037z" fill="#01c0fa"/><g><path d="m184.628 451.634h42.888v-122.549c0-2.009-1.629-3.637-3.637-3.637h-35.613c-2.009 0-3.637 1.629-3.637 3.637v122.549z" fill="#fed402"/></g><g><path d="m204.749 325.448h-16.484c-2.009 0-3.637 1.629-3.637 3.637v122.549h16.484v-122.549c0-2.009 1.628-3.637 3.637-3.637z" fill="#fac600"/></g><g><path d="m110.003 451.634h42.888v-186.977c0-2.009-1.629-3.637-3.637-3.637h-35.614c-2.009 0-3.637 1.629-3.637 3.637z" fill="#01d0fb"/></g><g><path d="m130.637 261.02h-16.997c-2.009 0-3.637 1.629-3.637 3.637v186.977h16.997v-186.977c0-2.009 1.629-3.637 3.637-3.637z" fill="#01c0fa"/></g><g><path d="m35.377 451.634h42.888v-259.791c0-2.009-1.629-3.637-3.637-3.637h-35.613c-2.009 0-3.637 1.629-3.637 3.637v259.791z" fill="#05e39c"/></g><g><path d="m55.749 188.205h-16.734c-2.009 0-3.637 1.629-3.637 3.637v259.791h16.734v-259.79c0-2.009 1.628-3.638 3.637-3.638z" fill="#0ed290"/></g></g><g><g><path d="m408.58 290.003-35.49-35.49c-6.579 8.788-14.392 16.601-23.18 23.18l35.49 35.49z" fill="#a8d3d8"/></g><g><path d="m500.107 385.722-18.349 18.349c-5.858 5.858-15.355 5.858-21.213 0l-79.448-79.448c-2.367-2.368-2.367-6.206 0-8.574l30.989-30.989c2.368-2.368 6.206-2.368 8.574 0l79.448 79.448c5.856 5.859 5.856 15.356-.001 21.214z" fill="#678d98"/></g><g><path d="m414.776 324.623c-2.367-2.368-2.367-6.206 0-8.574l18.436-18.436-12.553-12.553c-2.367-2.367-6.206-2.367-8.573 0l-30.989 30.989c-2.368 2.368-2.368 6.206 0 8.574l79.448 79.448c5.858 5.858 15.355 5.858 21.213 0l6.233-6.233z" fill="#537983"/></g><path d="m281.58 70.916c-18.393 0-35.776 4.315-51.203 11.978v48.924c0 1.657-1.343 3-3 3h-49.006c-7.713 15.467-12.059 32.908-12.059 51.366 0 63.66 51.607 115.267 115.267 115.267s115.267-51.607 115.267-115.267-51.606-115.268-115.266-115.268z" fill="#678d98"/><g fill="#537983"><path d="m302.656 72.845c-6.834-1.263-13.877-1.929-21.077-1.929-18.393 0-35.776 4.315-51.203 11.978v35.679c17.022-23.458 42.664-40.255 72.28-45.728z"/><path d="m230.242 253.605c-20.313-15.505-33.453-39.953-33.453-67.422 0-19.297 6.492-37.1 17.391-51.366h-35.808c-7.713 15.467-12.059 32.908-12.059 51.366 0 63.66 51.607 115.267 115.267 115.267 7.199 0 14.243-.666 21.077-1.929-29.696-5.488-55.395-22.359-72.415-45.916z"/></g><path d="m281.58 101.392c-19.223 0-36.965 6.44-51.203 17.263v13.163c0 1.657-1.343 3-3 3h-13.198c-10.898 14.266-17.391 32.068-17.391 51.366 0 46.754 38.037 84.792 84.792 84.792 46.754 0 84.792-38.038 84.792-84.792s-38.038-84.792-84.792-84.792z" fill="#c8effe"/><path d="m230.417 186.183c0-40.998 29.251-75.288 67.977-83.111-5.437-1.098-11.058-1.68-16.814-1.68-19.223 0-36.965 6.44-51.203 17.263v13.163c0 1.657-1.343 3-3 3h-13.198c-10.898 14.266-17.391 32.068-17.391 51.366 0 46.754 38.037 84.792 84.792 84.792 5.756 0 11.377-.582 16.814-1.68-38.726-7.825-67.977-42.115-67.977-83.113z" fill="#99e6fc"/><g><circle cx="281.58" cy="186.183" fill="#fd5426" r="51.006"/></g><g><path d="m281.58 186.183h51.006c0 27.981-23.025 51.006-51.006 51.006s-51.006-23.025-51.006-51.006c0-13.511 5.368-26.483 14.916-36.043z" fill="#01d0fb"/></g><g><path d="m247 186.183c0-9.571 2.706-18.865 7.671-26.874l-9.181-9.169c-9.547 9.56-14.916 22.532-14.916 36.043 0 27.981 23.025 51.006 51.006 51.006 2.794 0 5.535-.239 8.213-.68-24.134-3.978-42.793-25.139-42.793-50.326z" fill="#01c0fa"/></g></g><g><g><path d="m227.377 134.817h-189c-1.657 0-3-1.343-3-3v-68.451c0-1.657 1.343-3 3-3h189c1.657 0 3 1.343 3 3v68.452c0 1.656-1.343 2.999-3 2.999z" fill="#fd5426"/></g><g><path d="m84 131.817v-68.451c0-1.657 1.343-3 3-3h-48.623c-1.657 0-3 1.343-3 3v68.451c0 1.657 1.343 3 3 3h48.623c-1.657 0-3-1.343-3-3z" fill="#ef4424"/></g></g><g><path d="m505.41 359.206-13.433-13.434c-2.929-2.928-7.678-2.929-10.606 0-2.93 2.929-2.93 7.678-.001 10.607l13.434 13.434c1.416 1.417 2.196 3.3 2.196 5.303s-.78 3.886-2.197 5.303l-18.348 18.349c-2.925 2.924-7.683 2.924-10.607 0l-78.432-78.431 28.957-28.956 40.248 40.249c2.93 2.929 7.678 2.929 10.607 0s2.929-7.678 0-10.606l-41.267-41.266c-2.562-2.562-5.968-3.972-9.59-3.972-3.108 0-6.053 1.045-8.445 2.958l-24.334-24.334c13.101-19.525 20.754-42.998 20.754-68.226 0-67.694-55.073-122.767-122.767-122.767-15.389 0-30.118 2.86-43.703 8.055v-8.106c0-5.79-4.71-10.5-10.5-10.5h-189c-5.79 0-10.5 4.71-10.5 10.5v68.452c0 5.79 4.71 10.5 10.5 10.5h128.555c-5.235 13.63-8.118 28.415-8.118 43.866 0 57.41 39.614 105.735 92.94 119.096v138.856h-16.737v-115.051c0-6.141-4.996-11.137-11.138-11.137h-35.613c-6.142 0-11.138 4.996-11.138 11.137v115.049h-16.737v-56.134c0-4.142-3.357-7.5-7.5-7.5s-7.5 3.358-7.5 7.5v56.134h-27.888v-175.614h27.888v84.48c0 4.142 3.357 7.5 7.5 7.5s7.5-3.358 7.5-7.5v-88.343c0-6.141-4.996-11.137-11.137-11.137h-35.613c-6.142 0-11.138 4.996-11.138 11.137v179.477h-16.736v-252.291c0-6.141-4.996-11.137-11.138-11.137h-35.613c-6.142 0-11.138 4.996-11.138 11.137v252.292h-20.377c-4.143 0-7.5 3.358-7.5 7.5s3.357 7.5 7.5 7.5h322.519c4.143 0 7.5-3.358 7.5-7.5s-3.357-7.5-7.5-7.5h-20.377v-138.43c14.548-3.416 28.11-9.419 40.164-17.508l24.432 24.432c-3.656 5.282-3.145 12.598 1.555 17.299l79.448 79.448c4.386 4.386 10.147 6.579 15.909 6.579s11.524-2.193 15.911-6.579l18.348-18.349c4.25-4.25 6.591-9.9 6.591-15.91 0-6.012-2.341-11.662-6.59-15.911zm-434.644 84.928h-27.889v-248.428h27.889zm149.251 0h-27.889v-111.186h27.889zm-177.14-316.817v-59.451h180v59.452h-180zm251.765 316.817h-27.888v-136.082c4.862.588 9.808.898 14.826.898 4.413 0 8.768-.248 13.062-.704zm-13.062-150.184c-59.423 0-107.767-48.344-107.767-107.767 0-15.614 3.349-30.457 9.349-43.866h17.252c-7.085 13.056-11.125 27.996-11.125 43.866 0 50.89 41.401 92.292 92.291 92.292 43.756 0 81.801-31.117 90.463-73.989.82-4.06-1.806-8.017-5.866-8.837-4.061-.819-8.017 1.807-8.837 5.866-7.254 35.902-39.115 61.96-75.76 61.96-42.618 0-77.291-34.673-77.291-77.292 0-16.285 5.08-31.395 13.716-43.866h9.372c5.79 0 10.5-4.71 10.5-10.5v-9.319c12.44-8.569 27.489-13.607 43.703-13.607 36.018 0 67.762 25.535 75.481 60.716.889 4.046 4.889 6.605 8.934 5.718 4.046-.888 6.606-4.887 5.719-8.933-4.438-20.221-15.777-38.609-31.93-51.776-16.396-13.365-37.066-20.725-58.204-20.725-15.805 0-30.685 4.007-43.703 11.039v-17.237c13.366-5.955 28.152-9.277 43.703-9.277 59.423 0 107.767 48.344 107.767 107.767s-48.344 107.767-107.767 107.767zm80.255-14.938c4.486-3.884 8.689-8.087 12.573-12.573l22.846 22.846-12.573 12.573z"/><path d="m281.58 127.677c-32.26 0-58.506 26.246-58.506 58.506s26.246 58.506 58.506 58.506 58.506-26.246 58.506-58.506-26.246-58.506-58.506-58.506zm0 102.012c-23.989 0-43.506-19.517-43.506-43.506 0-9.281 2.931-17.886 7.902-24.957l30.304 30.264c1.406 1.404 3.313 2.193 5.3 2.193h42.845c-3.565 20.426-21.414 36.006-42.845 36.006zm3.104-51.006-28.107-28.07c7.08-4.991 15.702-7.935 25.003-7.935 21.431 0 39.28 15.58 42.845 36.006h-39.741z"/><path d="m93.302 90.092h-24.925c-4.143 0-7.5 3.358-7.5 7.5s3.357 7.5 7.5 7.5h24.925c4.143 0 7.5-3.358 7.5-7.5s-3.358-7.5-7.5-7.5z"/><path d="m197.377 90.092h-81c-4.143 0-7.5 3.358-7.5 7.5s3.357 7.5 7.5 7.5h81c4.143 0 7.5-3.358 7.5-7.5s-3.357-7.5-7.5-7.5z"/></g></g></svg>