<svg id="Layer_5" enable-background="new 0 0 64 64" height="512" viewBox="0 0 64 64" width="512" xmlns="http://www.w3.org/2000/svg"><g><g><g><path d="m50 6v4h-32.91c-.34-.66-.79-1.26-1.31-1.78s-1.12-.97-1.78-1.31v-.91c0-2.21 1.79-4 4-4h28c2.21 0 4 1.79 4 4z" fill="#969faa"/></g><g><path d="m50 52v6c0 2.21-1.79 4-4 4h-28c-2.21 0-4-1.79-4-4v-6c0 2.21 1.79 4 4 4h28c2.21 0 4-1.79 4-4z" fill="#969faa"/></g><g><path d="m50 10v4.04c-5.6.44-10 5.13-10 10.84 0 2.04.57 4.04 1.65 5.77l4.6 7.35h-14.25c-1.1 0-2-.9-2-2v-10c0-3.31-2.69-6-6-6h-8.8l1.43-2.04c.89-1.27 1.37-2.8 1.37-4.36 0-1.3-.33-2.53-.91-3.6z" fill="#69d6f4"/></g><g><path d="m50 44v8c0 2.21-1.79 4-4 4h-28c-2.21 0-4-1.79-4-4v-26h8c1.1 0 2 .9 2 2v10c0 3.31 2.69 6 6 6z" fill="#69d6f4"/></g><g><path d="m24 50-1.71 1.71c-.18.18-.44.29-.7.29h-.59c-.55 0-1-.45-1-1v-2c0-.55.45-1 1-1h.59c.26 0 .52.11.7.29z" fill="#fcd770"/></g><g><path d="m34 49v2c0 .55-.45 1-1 1h-2c-.55 0-1-.45-1-1v-2c0-.55.45-1 1-1h2c.55 0 1 .45 1 1z" fill="#fcd770"/></g><g><path d="m44 51c0 .55-.45 1-1 1h-.59c-.26 0-.52-.11-.7-.29l-1.71-1.71 1.71-1.71c.18-.18.44-.29.7-.29h.59c.55 0 1 .45 1 1z" fill="#fcd770"/></g><g><path d="m14 21.71 1.2-1.71h8.8c3.31 0 6 2.69 6 6v10c0 1.1.9 2 2 2h14.25l3.22 5.15c.14.22.32.41.53.54v.31h-20c-3.31 0-6-2.69-6-6v-10c0-1.1-.9-2-2-2h-8z" fill="#b4dd7f"/></g><g><path d="m17.09 10c.58 1.07.91 2.3.91 3.6 0 1.56-.48 3.09-1.37 4.36l-1.43 2.04-1.2 1.71-2.43 3.47c-.36.51-.94.82-1.57.82s-1.21-.31-1.57-.82l-5.06-7.22c-.89-1.27-1.37-2.8-1.37-4.36 0-4.2 3.4-7.6 7.6-7.6h.8c1.3 0 2.53.33 3.6.91.66.34 1.26.79 1.78 1.31s.97 1.12 1.31 1.78z" fill="#ff826e"/></g><g><path d="m50 14.04c.29-.03.58-.04.88-.04h.24c3 0 5.72 1.22 7.69 3.19s3.19 4.69 3.19 7.69c0 2.04-.57 4.04-1.65 5.77l-7.82 12.5c-.33.53-.91.85-1.53.85-.36 0-.71-.11-1-.31-.21-.13-.39-.32-.53-.54l-3.22-5.15-4.6-7.35c-1.08-1.73-1.65-3.73-1.65-5.77 0-5.71 4.4-10.4 10-10.84z" fill="#ff826e"/></g><g><circle cx="10" cy="14" fill="#e6e9ed" r="4"/></g><g><circle cx="51" cy="25" fill="#e6e9ed" r="7"/></g></g><g><path d="m31 5h6v2h-6z"/><path d="m27 5h2v2h-2z"/><path d="m21.586 47h-.586c-1.103 0-2 .897-2 2v2c0 1.103.897 2 2 2h.586c.534 0 1.036-.208 1.414-.586l2.414-2.414-2.414-2.414c-.378-.378-.88-.586-1.414-.586zm0 4h-.586v-2h.586l1 1z"/><path d="m33 47h-2c-1.103 0-2 .897-2 2v2c0 1.103.897 2 2 2h2c1.103 0 2-.897 2-2v-2c0-1.103-.897-2-2-2zm-2 4v-2h2l.001 2z"/><path d="m43 47h-.586c-.534 0-1.036.208-1.414.586l-2.414 2.414 2.414 2.414c.378.378.88.586 1.414.586h.586c1.103 0 2-.897 2-2v-2c0-1.103-.897-2-2-2zm-.586 4-1-1 1-1h.586l.001 2z"/><path d="m51.12 13h-.12v-7c0-2.757-2.243-5-5-5h-28c-2.56 0-4.653 1.942-4.942 4.426-.839-.274-1.732-.426-2.661-.426h-.794c-4.744 0-8.603 3.859-8.603 8.604 0 1.773.538 3.479 1.555 4.934l5.052 7.217c.546.779 1.441 1.245 2.393 1.245s1.847-.466 2.393-1.246l.607-.868v33.114c0 2.757 2.243 5 5 5h28c2.757 0 5-2.243 5-5v-13c.973 0 1.862-.492 2.378-1.317l7.816-12.507c1.181-1.89 1.806-4.068 1.806-6.296 0-6.551-5.329-11.88-11.88-11.88zm-10.314 18.176 3.64 5.824h-12.446c-.551 0-1-.448-1-1v-10c0-3.859-3.14-7-7-7h-6.879l.324-.463c1.017-1.454 1.555-3.16 1.555-4.933 0-.907-.143-1.782-.405-2.604h30.405v2.164c-5.658.906-10 5.807-10 11.716 0 2.228.625 4.406 1.806 6.296zm-25.806-25.176c0-1.654 1.346-3 3-3h28c1.654 0 3 1.346 3 3v3h-31.348c-.679-1.067-1.585-1.973-2.652-2.653zm-4.246 18.607c-.344.492-1.164.492-1.508 0l-5.052-7.217c-.781-1.116-1.194-2.425-1.194-3.786 0-3.642 2.962-6.604 6.603-6.604h.794c3.641 0 6.603 2.962 6.603 6.604 0 1.361-.413 2.671-1.194 3.787zm4.967-3.607h8.279c2.757 0 5 2.243 5 5v10c0 1.654 1.346 3 3 3h13.696l2.5 4h-18.196c-2.757 0-5-2.243-5-5v-10c0-1.654-1.346-3-3-3h-7v-2.971zm30.279 40h-28c-1.654 0-3-1.346-3-3v-2.026c.838.635 1.87 1.026 3 1.026h28c1.13 0 2.162-.391 3-1.026v2.026c0 1.654-1.346 3-3 3zm0-6h-28c-1.654 0-3-1.346-3-3v-25h7c.551 0 1 .448 1 1v10c0 3.859 3.14 7 7 7h19v7c0 1.654-1.346 3-3 3zm13.498-24.885-7.816 12.507c-.295.473-1.068.473-1.363 0l-7.816-12.507c-.983-1.571-1.503-3.382-1.503-5.235 0-5.448 4.432-9.88 9.88-9.88h.24c5.448 0 9.88 4.432 9.88 9.88 0 1.853-.52 3.664-1.502 5.235z"/><path d="m10 9c-2.757 0-5 2.243-5 5s2.243 5 5 5 5-2.243 5-5-2.243-5-5-5zm0 8c-1.654 0-3-1.346-3-3s1.346-3 3-3 3 1.346 3 3-1.346 3-3 3z"/><path d="m51 17c-4.411 0-8 3.589-8 8s3.589 8 8 8 8-3.589 8-8-3.589-8-8-8zm0 14c-3.309 0-6-2.691-6-6s2.691-6 6-6 6 2.691 6 6-2.691 6-6 6z"/><path d="m25 13h2v2h-2z"/><path d="m21 13h2v2h-2z"/><path d="m29 13h2v2h-2z"/></g></g></svg>