<?xml version="1.0" standalone="no"?>
<!DOCTYPE svg PUBLIC "-//W3C//DTD SVG 20010904//EN"
 "http://www.w3.org/TR/2001/REC-SVG-20010904/DTD/svg10.dtd">
<svg version="1.0" xmlns="http://www.w3.org/2000/svg"
 width="100.000000pt" height="70.000000pt" viewBox="0 0 242.000000 187.000000"
 preserveAspectRatio="xMidYMid meet">

<g transform="translate(0.000000,187.000000) scale(0.100000,-0.100000)"
fill="#000000" stroke="none">
<path d="M1155 1676 c-117 -29 -267 -135 -227 -160 4 -2 28 11 52 31 64 51
154 90 236 104 126 20 267 -19 374 -104 31 -25 48 -33 55 -26 13 14 -63 82
-127 115 -102 52 -249 68 -363 40z"/>
<path d="M1212 1520 c-82 -17 -190 -90 -173 -118 5 -9 16 -5 42 14 75 56 109
68 199 69 91 0 148 -19 211 -72 25 -21 30 -23 35 -8 24 61 -192 140 -314 115z"/>
<path d="M1199 1337 c-24 -13 -45 -31 -47 -40 -5 -23 14 -21 54 4 45 28 113
27 159 -1 19 -12 39 -19 44 -15 33 20 -59 75 -126 75 -22 0 -59 -10 -84 -23z"/>
<path d="M1270 1195 c0 -8 7 -15 15 -15 8 0 15 7 15 15 0 8 -7 15 -15 15 -8 0
-15 -7 -15 -15z"/>
<path d="M1130 944 c-95 -20 -203 -67 -300 -129 -136 -87 -173 -104 -282 -125
-216 -42 -295 -73 -351 -139 -47 -57 -61 -156 -31 -231 18 -45 34 -52 123 -54
l56 -1 5 60 c3 41 14 75 33 107 79 136 280 140 372 9 22 -32 29 -56 33 -111
l5 -70 366 2 366 3 6 66 c7 81 35 131 97 170 54 34 97 44 156 35 99 -15 186
-113 186 -210 l0 -47 68 7 c37 4 75 11 84 15 60 31 40 372 -25 413 -12 8 -60
17 -107 21 -102 9 -128 19 -200 80 -73 61 -181 112 -275 130 -96 19 -298 18
-385 -1z m395 -51 c97 -24 205 -99 205 -142 0 -35 -100 -50 -405 -61 -313 -11
-515 -4 -515 18 0 44 165 137 308 172 162 41 282 45 407 13z"/>
<path d="M494 461 c-95 -58 -116 -170 -47 -251 111 -132 321 -25 283 144 -9
41 -49 89 -92 112 -38 20 -107 17 -144 -5z"/>
<path d="M1670 459 c-114 -66 -113 -224 1 -288 93 -53 210 0 239 107 18 68
-23 152 -91 187 -40 21 -108 18 -149 -6z"/>
</g>
</svg>
